<mxfile host="app.diagrams.net" modified="2022-10-12T14:57:59.002Z" agent="5.0 (Windows NT 10.0; Win64; x64) AppleWebKit/537.36 (KHTML, like Gecko) Chrome/106.0.0.0 Safari/537.36" etag="4xyPHnigGWXoUvfMddGj" version="20.4.0" type="github">
  <diagram id="SgaaNSLlH5MaYirRRI0-" name="第 1 页">
    <mxGraphModel dx="1422" dy="762" grid="0" gridSize="10" guides="1" tooltips="1" connect="1" arrows="1" fold="1" page="1" pageScale="1" pageWidth="1169" pageHeight="827" math="0" shadow="0">
      <root>
        <mxCell id="0" />
        <mxCell id="1" parent="0" />
        <mxCell id="-dVbE0PXWhvkMSv9Ijtr-1" value="inter-site" style="rounded=1;whiteSpace=wrap;html=1;strokeWidth=2;strokeColor=#B3B3B3;fillColor=#99FFFF;comic=1;" parent="1" vertex="1">
          <mxGeometry x="427" y="142" width="165" height="72" as="geometry" />
        </mxCell>
        <mxCell id="-dVbE0PXWhvkMSv9Ijtr-2" value="" style="html=1;shadow=0;dashed=0;align=center;verticalAlign=middle;shape=mxgraph.arrows2.arrow;dy=0.6;dx=40;direction=north;notch=0;strokeColor=#FF6666;strokeWidth=2;" parent="1" vertex="1">
          <mxGeometry x="495" y="214" width="29" height="108" as="geometry" />
        </mxCell>
        <mxCell id="-dVbE0PXWhvkMSv9Ijtr-3" value="f_b2b_opensupplier_nts" style="rounded=1;whiteSpace=wrap;html=1;strokeColor=#82b366;strokeWidth=2;fillColor=#d5e8d4;" parent="1" vertex="1">
          <mxGeometry x="428.5" y="324" width="162" height="64" as="geometry" />
        </mxCell>
      </root>
    </mxGraphModel>
  </diagram>
</mxfile>
